<svg width="32" height="20" viewBox="0 0 32 20" fill="none" xmlns="http://www.w3.org/2000/svg">
<path d="M21.1253 0C20.8222 0 20.52 0.120002 20.2981 0.357026C19.8766 0.808145 19.9059 1.51182 20.3618 1.92738L29.2161 9.99986L20.3618 18.0724C19.9059 18.4879 19.8766 19.1916 20.2981 19.6427C20.7196 20.0931 21.4313 20.122 21.888 19.7049L31.6379 10.8161C31.8688 10.6058 32 10.3095 32 9.99986C32 9.69024 31.8688 9.39394 31.6379 9.18357L21.888 0.294819C21.672 0.0970406 21.3982 0 21.1253 0Z" fill="#55A8B5"/>
<path d="M30.7368 9H1.26316C0.565059 9 0 9.44732 0 9.99999C0 10.5527 0.565059 11 1.26316 11H30.7368C31.435 11 32 10.5527 32 9.99999C32 9.44732 31.435 9 30.7368 9Z" fill="#55A8B5"/>
</svg>
