<svg width="25" height="22" viewBox="0 0 25 22" fill="none" xmlns="http://www.w3.org/2000/svg">
<path d="M24.0984 8.55007V8.55007L12.6984 0.150066C12.3951 -0.050022 12.0017 -0.050022 11.6984 0.150066L0.298443 8.45007C-0.038679 8.74199 -0.0982405 9.24253 0.160962 9.60541C0.420165 9.96829 0.912962 10.0743 1.29844 9.85007L12.1984 1.85007L23.0984 9.85007C23.2158 9.9296 23.3575 9.96503 23.4984 9.95007H23.6984C23.9226 9.91121 24.1113 9.76026 24.1984 9.55007C24.4177 9.23804 24.3751 8.8125 24.0984 8.55007V8.55007Z" fill="#8737E1"/>
<path d="M20.8983 9.55086V9.55086C20.6852 9.54787 20.48 9.63119 20.3293 9.78187C20.1787 9.93256 20.0953 10.1378 20.0983 10.3509V20.0509H15.4983V14.8509C15.4983 13.0283 14.0209 11.5509 12.1983 11.5509C10.3758 11.5509 8.89832 13.0283 8.89832 14.8509V20.0509H4.29832V10.3509C4.30131 10.1378 4.21799 9.93256 4.06731 9.78187C3.91662 9.63119 3.7114 9.54787 3.49832 9.55086C3.06909 9.57989 2.72735 9.92163 2.69832 10.3509V20.8509C2.69533 21.0639 2.77865 21.2692 2.92934 21.4198C3.08002 21.5705 3.28524 21.6539 3.49832 21.6509H9.69832C9.9114 21.6539 10.1166 21.5705 10.2673 21.4198C10.418 21.2692 10.5013 21.0639 10.4983 20.8509V14.7509C10.4983 13.812 11.2594 13.0509 12.1983 13.0509C13.1372 13.0509 13.8983 13.812 13.8983 14.7509V20.8509V20.8509C13.9274 21.2801 14.2691 21.6218 14.6983 21.6509H20.8983C21.1114 21.6539 21.3166 21.5705 21.4673 21.4198C21.618 21.2692 21.7013 21.0639 21.6983 20.8509V10.3509C21.6693 9.92163 21.3275 9.57989 20.8983 9.55086Z" fill="#8737E1"/>
</svg>
