<svg width="55" height="55" viewBox="0 0 55 55" fill="none" xmlns="http://www.w3.org/2000/svg">
<circle cx="27.5" cy="27.5" r="27.5" fill="#A0186A"/>
<rect width="36" height="36" transform="translate(10 9)" fill="#A0186A"/>
<path d="M28 14.625C24.8934 14.625 22.375 17.1434 22.375 20.25C22.375 23.3566 24.8934 25.875 28 25.875C31.1066 25.875 33.625 23.3566 33.625 20.25C33.625 17.1434 31.1066 14.625 28 14.625Z" fill="white"/>
<path d="M22 28.875C18.8934 28.875 16.375 31.3934 16.375 34.5V36.2824C16.375 37.4123 17.1938 38.3756 18.3089 38.5577C24.7271 39.6056 31.2729 39.6056 37.6911 38.5577C38.8062 38.3756 39.625 37.4123 39.625 36.2824V34.5C39.625 31.3934 37.1066 28.875 34 28.875H33.4887C33.212 28.875 32.937 28.9188 32.6739 29.0047L31.3756 29.4286C29.1822 30.1448 26.8178 30.1448 24.6244 29.4286L23.3261 29.0047C23.063 28.9188 22.788 28.875 22.5113 28.875H22Z" fill="white"/>
</svg>
